<svg xmlns="http://www.w3.org/2000/svg" viewBox="0 0 447.5 401"><defs><style>.cls-1{fill:#fff;}</style></defs><g id="Layer_2" data-name="Layer 2"><g id="Layer_1-2" data-name="Layer 1"><path class="cls-1" d="M447.5,401H0V0H447.5ZM112.64,66.25a12.53,12.53,0,0,0,.91-2.31c.44-2.59,1.3-5.26,1-7.79-.54-5-5.64-7.26-10-4.6a20.2,20.2,0,0,0-4.05,3.32c-8,8.47-16,16.94-23.87,25.57a30.87,30.87,0,0,0-5.64,8.16c-5.21,12-10.47,24-15,36.23-5,13.63-5.83,27.78-3.19,42.12a107.55,107.55,0,0,0,13.63,35.78c19.31,32.35,41.3,62.77,66.75,90.59,13,14.18,26.87,27.34,43.16,37.73,9.19,5.86,18.88,10.64,29.79,12.35a9.46,9.46,0,0,1,5.8,2.91q10.33,10.8,23.59,3.9c3.15-1.65,5.9-4,9-5.85a35.83,35.83,0,0,1,5.41-2.08c2.84-1.09,5.94-1.8,8.44-3.43a31.44,31.44,0,0,0,6.85-6.49c11.31-13.78,22.77-27.45,33.67-41.55,22-28.43,39.11-59.54,50.45-93.73,1.36-4.11,2.69-8.24,3.75-12.43.21-.84-.87-2-1.36-3a11,11,0,0,0-2.83,1.78c-.61.69-.68,1.84-1,2.8a305.94,305.94,0,0,1-36.14,78.22c-13.62,21-29.37,40.43-45.53,59.52a115.88,115.88,0,0,1-10.22,10.9A10.31,10.31,0,0,1,244,336.45a41.51,41.51,0,0,1-7-4.29c-3.76-2.93-8-4.54-12.48-6.08-8.95-3.11-18-6.18-26.59-10.1-20.06-9.14-36.19-23.56-51.06-39.51-20-21.45-37.17-45.1-53.52-69.37-2-3-4-6-6-8.94-.9-1.34-2-2.47-3.7-1.35s-1,2.61-.15,4c.13.21.28.41.42.62,14.08,21.36,28.8,42.26,45.19,62,11.16,13.4,23,26.1,36.42,37.34,17.4,14.62,37.34,24.32,59.14,30.29,6.44,1.76,10.71,6.72,16.6,9.44-7.71,7.41-17.47,10.87-22.75,4.94.61-1.37,1.59-2.59,1.48-3.7-.07-.69-1.78-1.72-2.77-1.73-15.07-.26-28.2-6-40.46-14.18-17-11.42-31.42-25.73-45-41C113,263.59,96.28,240.71,80.75,217c-7-10.67-13.7-21.49-18.32-33.47-6.61-17.12-8.73-34.66-3.37-52.39C62.3,120.39,66.7,110,71,99.61c2.08-5,4.44-10.23,7.83-14.4,6.51-8,13.8-15.37,20.84-22.92a74.56,74.56,0,0,1,6.76-6.3,3.1,3.1,0,0,1,2.68-.46c.59.25,1,1.51,1,2.31a8.67,8.67,0,0,1-.79,3.86,55.62,55.62,0,0,1-4.24,6.74C99.77,75.77,94.17,82.92,89,90.38a23.27,23.27,0,0,0-3.92,15.47c.26,3,.47,6,.6,9,.22,5.44-.58,10.59-3.91,15.17-1.86,2.56-3.32,5.39-5,8.07-.88,1.41-1,3,.49,3.63.81.36,2.59-.3,3.27-1.08a34.3,34.3,0,0,0,3.5-5.46c4-6.82,8.31-13.26,15.41-17.34,2.67-1.53,3.9-4.25,4.53-7.2a19,19,0,0,1,.81-3.65,21.79,21.79,0,0,1,2.19-3.31c1,.9,2.38,1.62,2.87,2.74,2.34,5.4,1.45,10.61-1.66,15.46-1.44,2.24-3.07,4.36-4.68,6.48a45.47,45.47,0,0,0-9.29,22.34A34,34,0,0,1,86,169.37c-2.52,2.88-4.9,5.89-7.29,8.88-1.07,1.33-2.71,2.85-.76,4.49s3.15-.07,4.29-1.46c1.32-1.61,2.73-3.16,3.94-4.85s2.26-2,3.81-.17c2.7,3.17,5.66,6.12,8.46,9.2a177,177,0,0,0,66.73,46.35c11.93,4.7,23.79,9.61,35.46,14.91,16.23,7.36,30.41,17.58,41.56,31.67,3,3.85,5.77,7.94,8.66,11.92.88,1.23,2.18,2,3.33.83.64-.65.47-2.15.54-3.28,0-.34-.4-.71-.64-1.05-3.53-4.74-7-9.57-10.67-14.16-1.42-1.76-1.54-2.88-.22-4.71,6.79-9.42,13-19.26,16.86-30.25q6.22-17.53,11.54-35.38c7.18-24.18,18.92-45.62,36.88-63.5.29-.29.77-.6.79-.92.07-1,.37-2.5-.18-3.06s-2-.19-3,0c-.41.06-.76.62-1.11,1-11.62,12.09-22.12,25.1-28.48,40.73-5.26,12.94-9.79,26.21-13.89,39.57-5.26,17.17-11.7,33.66-22.42,48.24-1.9,2.58-1.87,2.65-4.23.4-6.85-6.53-14.26-12.43-22.72-16.62-11.26-5.57-22.76-10.66-34.32-15.59-14.72-6.27-29.59-12.16-43.08-20.94-16.65-10.83-30.29-25-43.49-39.59a2.06,2.06,0,0,1-.12-3.07,30.92,30.92,0,0,0,6.21-15.61,47,47,0,0,1,10.19-24.06,43,43,0,0,0,4.27-6.15c3.61-6.74,4.19-13.65.25-20.48A6.58,6.58,0,0,0,106.25,99c-3.1.43-4.79,2.49-5.59,5.36a42.9,42.9,0,0,0-1,4.63c-.83,5.13-5.29,6.46-9.17,8.75-.4-6.09-.41-12-.39-18a3.2,3.2,0,0,1,.29-1.21c5.62-12.75,13-23.75,27.07-28.62,14.29-4.93,28.52-4.19,42.8-.38C174,73.17,186.45,79.63,198.5,87c9.72,6,20.29,8.51,31.34,4.86A114.13,114.13,0,0,0,249,83c13.74-7.6,27.92-13.84,43.61-16,12-1.63,23.84-.8,34.92,4.6a36.46,36.46,0,0,1,10.11,6.69c3.57,3.65,6.21,8.22,9.29,12.35,6.24,8.37,4,17.72,3.41,27.42-1.8-1.19-3.19-2.18-4.65-3.06a8.82,8.82,0,0,1-4.47-6.82,18.91,18.91,0,0,0-1.66-5.72,6.16,6.16,0,0,0-10-1.88,11.59,11.59,0,0,0-2.7,3.84,20.06,20.06,0,0,0,1.4,18.71c1.75,3,4,5.75,6,8.61,3.76,5.29,6.63,10.91,7.57,17.47,1,7.11,2.53,14.14,7.24,19.95l10.07,12.43c1,1.22,2.15,2.43,3.77,1.21s1-2.76-.15-4.1c-2.64-3.22-5.22-6.49-7.92-9.67a31.89,31.89,0,0,1-7.74-17.05A50.17,50.17,0,0,0,336,126.26c-1-1.24-1.89-2.53-2.81-3.82a16.28,16.28,0,0,1-3.12-12,15.8,15.8,0,0,1,2.15-5.75c1-1.65,2.68-1.37,3.45.41a13.53,13.53,0,0,1,.94,3.61,14.41,14.41,0,0,0,7,10.68,27.15,27.15,0,0,1,7,6.33c3.42,4.6,6.33,9.58,9.45,14.4.9,1.4,2,2.82,3.79,1.66s1.08-2.71.19-4.15c-1.79-2.9-3.47-5.88-5.4-8.7a18.41,18.41,0,0,1-3.15-10.62c0-3.66.33-7.32.41-11a43.33,43.33,0,0,0-.15-7.21c-1-6.37-4.34-11.68-8.09-16.7-4.58-6.15-9.52-12-14-18.23-1.4-1.93-2-4.5-2.65-6.87A3.11,3.11,0,0,1,332,55.53c.63-.37,2,.18,2.87.61a7.71,7.71,0,0,1,2.08,1.76c8.65,9.25,17.33,18.47,25.88,27.81a19.3,19.3,0,0,1,3.37,5.51c4.71,11.12,9.53,22.19,13.79,33.48a84.82,84.82,0,0,1,4.11,16.69c2.35,15.16-.5,29.69-6.18,43.75-6.47,16-16.07,30.09-26.49,43.67-9.18,12-18.61,23.73-27.92,35.59-1.06,1.34-1.82,2.88-.13,4.12,1.54,1.14,2.76.09,3.77-1.21,10.89-14,21.95-27.89,32.66-42,9.34-12.32,17.42-25.43,23.09-39.9,7.18-18.31,9.27-37.09,3.41-56-3.48-11.27-8.27-22.14-12.65-33.12-2.47-6.19-5.5-12.09-10.24-17-6-6.18-11.59-12.66-17.5-18.88a73.11,73.11,0,0,0-9.15-8.46c-4.36-3.24-9.38-1-10.37,4.32a11.15,11.15,0,0,0,.07,4.19c.41,2,1.16,3.91,1.76,5.84-.27.11-.44.25-.56.22a10.24,10.24,0,0,1-1.18-.4c-12.4-4.82-25.14-5.34-38.11-3-15.63,2.83-29.89,9.1-43.47,17.14-5.68,3.36-11.54,6.32-18,7.79-10.2,2.32-19.24-.64-27.79-6a144.18,144.18,0,0,0-31.22-15c-13-4.29-26.19-6.69-39.84-4.42C122.94,63.37,118,64.92,112.64,66.25ZM299.49,208l-.46.13c-.12,1.41-.28,2.82-.36,4.23-.16,2.66,1.23,3.78,3.72,2.78,5.32-2.14,10.69-4.2,15.81-6.75a16.26,16.26,0,0,0,5.63-5.07c2.37-3.3,2.91-7.13.76-10.82s-5.47-4.75-9.4-4.29c-1.87.22-2.39-.32-2.62-2.16-.49-3.8-2.05-7.1-6-8.48-5.5-1.92-11.83,2.21-11.91,8.18,0,3.31,1.12,6.65,1.86,10C297.45,199.77,298.5,203.85,299.49,208ZM175.77,222.08c-.27-1.18-.39-1.83-.57-2.47-6.94-25.45-18.36-48.53-36-68.3q-6.17-6.88-12.46-13.65c-1.15-1.25-2.48-3.06-4.35-1.31-2,1.88-.07,3.24,1.09,4.58.65.76,1.36,1.47,2.06,2.18,19.73,20.2,35.11,43.06,43,70.47a91.85,91.85,0,0,0,2.8,8.8,3.33,3.33,0,0,0,2.64,1.54C174.65,223.9,175.3,222.6,175.77,222.08Zm54.34-97.27a27.59,27.59,0,0,0,.75,2.82c.52,1.44,1.45,2.61,3.17,2s1.81-2.1,1.19-3.53c-1-2.2-.31-4.13.9-5.87a14.44,14.44,0,0,1,3.25-3.41c6.59-4.79,13.25-9.49,19.91-14.19,1.27-.89,2.29-1.89,1.39-3.49s-2.33-1.49-3.64-.55c-7.5,5.38-15.06,10.67-22.4,16.26Q230.24,118.21,230.11,124.81Zm-19.68-.62a14.25,14.25,0,0,0-5.92-10.43c-5.45-4.22-11-8.24-16.63-12.29a25.89,25.89,0,0,0-5.12-3.06,3.1,3.1,0,0,0-2.91.66c-.41.67.09,2.08.53,3,.27.58,1.18.85,1.79,1.28,6.22,4.44,12.49,8.81,18.63,13.35,3.39,2.5,5.75,5.52,4.2,10.23-.23.69.7,2.22,1.48,2.63.53.27,2.11-.49,2.54-1.2A18.53,18.53,0,0,0,210.43,124.19Zm10.65,8.09a48.66,48.66,0,0,0-5.69,2.12,3.6,3.6,0,0,0-1.92,4.45,44.57,44.57,0,0,0,3.77,9.12c2,3.31,5.72,3.42,7.75.16a41.46,41.46,0,0,0,3.88-9.59c.61-1.94-.58-3.64-2.37-4.48A46.6,46.6,0,0,0,221.08,132.28ZM256,282.62l.77-.59c.34-.2,1-.38,1-.59a4,4,0,0,0-.24-2.3c-2.18-3.13-4.42-6.21-6.8-9.19-.49-.6-1.64-.66-2.48-1,.09.94-.13,2.1.34,2.79,2,3,4.31,5.88,6.45,8.83A13.67,13.67,0,0,1,256,282.62Zm60.25-104.31c.72.88,1.17,1.9,1.91,2.19a2.57,2.57,0,0,0,2.38-.58,19.84,19.84,0,0,0,2.76-5,2.84,2.84,0,0,0-1-2.48,2.46,2.46,0,0,0-2.41.2A61.42,61.42,0,0,0,316.26,178.31Zm-20.47,42.76a5.3,5.3,0,0,0-1.63,1.21,14.68,14.68,0,0,0-2.22,4.16,3.2,3.2,0,0,0,.85,2.88,3.09,3.09,0,0,0,2.88-.73,16.23,16.23,0,0,0,2.49-4.3C298.87,222.67,297.83,221.11,295.79,221.07ZM215.66,336l1.69-1.25c-.53-.62-.95-1.61-1.61-1.8-2.87-.82-5.8-1.49-8.74-2-.67-.12-1.47.54-2.21.84.45.61.78,1.59,1.35,1.76C209.17,334.41,212.25,335.12,215.66,336Z"/><path d="M112.64,66.25c5.36-1.33,10.3-2.88,15.35-3.72,13.65-2.27,26.87.13,39.84,4.42a144.18,144.18,0,0,1,31.22,15c8.55,5.35,17.59,8.31,27.79,6,6.51-1.47,12.37-4.43,18-7.79,13.58-8,27.84-14.31,43.47-17.14,13-2.35,25.71-1.83,38.11,3a10.24,10.24,0,0,0,1.18.4c.12,0,.29-.11.56-.22-.6-1.93-1.35-3.85-1.76-5.84a11.15,11.15,0,0,1-.07-4.19c1-5.33,6-7.56,10.37-4.32a73.11,73.11,0,0,1,9.15,8.46c5.91,6.22,11.54,12.7,17.5,18.88,4.74,4.92,7.77,10.82,10.24,17,4.38,11,9.17,21.85,12.65,33.12,5.86,18.95,3.77,37.73-3.41,56-5.67,14.47-13.75,27.58-23.09,39.9-10.71,14.14-21.77,28-32.66,42-1,1.3-2.23,2.35-3.77,1.21-1.69-1.24-.93-2.78.13-4.12,9.31-11.86,18.74-23.63,27.92-35.59,10.42-13.58,20-27.68,26.49-43.67,5.68-14.06,8.53-28.59,6.18-43.75A84.82,84.82,0,0,0,380,124.7c-4.26-11.29-9.08-22.36-13.79-33.48a19.3,19.3,0,0,0-3.37-5.51c-8.55-9.34-17.23-18.56-25.88-27.81a7.71,7.71,0,0,0-2.08-1.76c-.89-.43-2.24-1-2.87-.61a3.11,3.11,0,0,0-1.07,2.75c.63,2.37,1.25,4.94,2.65,6.87,4.49,6.21,9.43,12.08,14,18.23,3.75,5,7.12,10.33,8.09,16.7a43.33,43.33,0,0,1,.15,7.21c-.08,3.66-.42,7.32-.41,11a18.41,18.41,0,0,0,3.15,10.62c1.93,2.82,3.61,5.8,5.4,8.7.89,1.44,1.62,3-.19,4.15s-2.89-.26-3.79-1.66c-3.12-4.82-6-9.8-9.45-14.4a27.15,27.15,0,0,0-7-6.33,14.41,14.41,0,0,1-7-10.68,13.53,13.53,0,0,0-.94-3.61c-.77-1.78-2.46-2.06-3.45-.41a15.8,15.8,0,0,0-2.15,5.75,16.28,16.28,0,0,0,3.12,12c.92,1.29,1.83,2.58,2.81,3.82a50.17,50.17,0,0,1,11.1,25.81,31.89,31.89,0,0,0,7.74,17.05c2.7,3.18,5.28,6.45,7.92,9.67,1.1,1.34,1.86,2.82.15,4.1s-2.78,0-3.77-1.21l-10.07-12.43c-4.71-5.81-6.21-12.84-7.24-19.95-.94-6.56-3.81-12.18-7.57-17.47-2-2.86-4.24-5.6-6-8.61a20.06,20.06,0,0,1-1.4-18.71,11.59,11.59,0,0,1,2.7-3.84,6.16,6.16,0,0,1,10,1.88,18.91,18.91,0,0,1,1.66,5.72,8.82,8.82,0,0,0,4.47,6.82c1.46.88,2.85,1.87,4.65,3.06.6-9.7,2.83-19.05-3.41-27.42-3.08-4.13-5.72-8.7-9.29-12.35a36.46,36.46,0,0,0-10.11-6.69c-11.08-5.4-22.88-6.23-34.92-4.6C277,69.2,262.78,75.44,249,83a114.13,114.13,0,0,1-19.2,8.85C218.79,95.54,208.22,93,198.5,87,186.45,79.63,174,73.17,160.25,69.5c-14.28-3.81-28.51-4.55-42.8.38C103.35,74.75,96,85.75,90.38,98.5a3.2,3.2,0,0,0-.29,1.21c0,6,0,11.92.39,18,3.88-2.29,8.34-3.62,9.17-8.75a42.9,42.9,0,0,1,1-4.63c.8-2.87,2.49-4.93,5.59-5.36a6.58,6.58,0,0,1,6.87,3.62c3.94,6.83,3.36,13.74-.25,20.48a43,43,0,0,1-4.27,6.15,47,47,0,0,0-10.19,24.06A30.92,30.92,0,0,1,92.2,168.9a2.06,2.06,0,0,0,.12,3.07c13.2,14.62,26.84,28.76,43.49,39.59,13.49,8.78,28.36,14.67,43.08,20.94,11.56,4.93,23.06,10,34.32,15.59,8.46,4.19,15.87,10.09,22.72,16.62,2.36,2.25,2.33,2.18,4.23-.4,10.72-14.58,17.16-31.07,22.42-48.24,4.1-13.36,8.63-26.63,13.89-39.57,6.36-15.63,16.86-28.64,28.48-40.73.35-.36.7-.92,1.11-1,1-.15,2.51-.48,3,0s.25,2,.18,3.06c0,.32-.5.63-.79.92-18,17.88-29.7,39.32-36.88,63.5q-5.29,17.83-11.54,35.38c-3.9,11-10.07,20.83-16.86,30.25-1.32,1.83-1.2,2.95.22,4.71,3.72,4.59,7.14,9.42,10.67,14.16.24.34.65.71.64,1.05-.07,1.13.1,2.63-.54,3.28-1.15,1.17-2.45.4-3.33-.83-2.89-4-5.62-8.07-8.66-11.92-11.15-14.09-25.33-24.31-41.56-31.67-11.67-5.3-23.53-10.21-35.46-14.91a177,177,0,0,1-66.73-46.35c-2.8-3.08-5.76-6-8.46-9.2-1.55-1.83-2.53-1.61-3.81.17s-2.62,3.24-3.94,4.85c-1.14,1.39-2.38,3.06-4.29,1.46s-.31-3.16.76-4.49c2.39-3,4.77-6,7.29-8.88a34,34,0,0,0,8.24-18.7,45.47,45.47,0,0,1,9.29-22.34c1.61-2.12,3.24-4.24,4.68-6.48,3.11-4.85,4-10.06,1.66-15.46-.49-1.12-1.89-1.84-2.87-2.74A21.79,21.79,0,0,0,104.8,107a19,19,0,0,0-.81,3.65c-.63,3-1.86,5.67-4.53,7.2-7.1,4.08-11.45,10.52-15.41,17.34a34.3,34.3,0,0,1-3.5,5.46c-.68.78-2.46,1.44-3.27,1.08-1.52-.66-1.37-2.22-.49-3.63,1.69-2.68,3.15-5.51,5-8.07,3.33-4.58,4.13-9.73,3.91-15.17-.13-3-.34-6-.6-9A23.27,23.27,0,0,1,89,90.38c5.14-7.46,10.74-14.61,16.07-21.94a55.62,55.62,0,0,0,4.24-6.74,8.67,8.67,0,0,0,.79-3.86c0-.8-.45-2.06-1-2.31a3.1,3.1,0,0,0-2.68.46,74.56,74.56,0,0,0-6.76,6.3c-7,7.55-14.33,14.91-20.84,22.92-3.39,4.17-5.75,9.36-7.83,14.4C66.7,110,62.3,120.39,59.06,131.12c-5.36,17.73-3.24,35.27,3.37,52.39,4.62,12,11.34,22.8,18.32,33.47,15.53,23.73,32.2,46.61,51.06,67.82,13.55,15.23,27.95,29.54,45,41,12.26,8.22,25.39,13.92,40.46,14.18,1,0,2.7,1,2.77,1.73.11,1.11-.87,2.33-1.48,3.7,5.28,5.93,15,2.47,22.75-4.94-5.89-2.72-10.16-7.68-16.6-9.44-21.8-6-41.74-15.67-59.14-30.29-13.39-11.24-25.26-23.94-36.42-37.34-16.39-19.69-31.11-40.59-45.19-62-.14-.21-.29-.41-.42-.62-.85-1.37-1.48-2.87.15-4s2.8,0,3.7,1.35c2,3,4,6,6,8.94,16.35,24.27,33.52,47.92,53.52,69.37,14.87,15.95,31,30.37,51.06,39.51,8.62,3.92,17.64,7,26.59,10.1,4.45,1.54,8.72,3.15,12.48,6.08a41.51,41.51,0,0,0,7,4.29,10.31,10.31,0,0,0,12.13-1.59A115.88,115.88,0,0,0,266.34,324c16.16-19.09,31.91-38.49,45.53-59.52A305.94,305.94,0,0,0,348,186.22c.29-1,.36-2.11,1-2.8a11,11,0,0,1,2.83-1.78c.49,1,1.57,2.17,1.36,3-1.06,4.19-2.39,8.32-3.75,12.43-11.34,34.19-28.48,65.3-50.45,93.73-10.9,14.1-22.36,27.77-33.67,41.55a31.44,31.44,0,0,1-6.85,6.49c-2.5,1.63-5.6,2.34-8.44,3.43a35.83,35.83,0,0,0-5.41,2.08c-3.09,1.81-5.84,4.2-9,5.85q-13.26,6.93-23.59-3.9a9.46,9.46,0,0,0-5.8-2.91c-10.91-1.71-20.6-6.49-29.79-12.35-16.29-10.39-30.2-23.55-43.16-37.73-25.45-27.82-47.44-58.24-66.75-90.59A107.55,107.55,0,0,1,52.89,167c-2.64-14.34-1.82-28.49,3.19-42.12,4.51-12.26,9.77-24.25,15-36.23a30.87,30.87,0,0,1,5.64-8.16c7.84-8.63,15.86-17.1,23.87-25.57a20.2,20.2,0,0,1,4.05-3.32c4.32-2.66,9.42-.43,10,4.6.27,2.53-.59,5.2-1,7.79A12.53,12.53,0,0,1,112.64,66.25Z"/><path d="M299.49,208c-1-4.1-2-8.18-3-12.3-.74-3.3-1.9-6.64-1.86-10,.08-6,6.41-10.1,11.91-8.18,3.94,1.38,5.5,4.68,6,8.48.23,1.84.75,2.38,2.62,2.16,3.93-.46,7.33.74,9.4,4.29s1.61,7.52-.76,10.82a16.26,16.26,0,0,1-5.63,5.07c-5.12,2.55-10.49,4.61-15.81,6.75-2.49,1-3.88-.12-3.72-2.78.08-1.41.24-2.82.36-4.23Zm5.22,1.54c4.33-2.11,9.09-4.06,13.46-6.68,3-1.79,3.76-6.26,2.18-8.38s-5.39-2.25-8.58,0l-.2.15c-1.19.89-2.37,2.15-4,1s-.56-2.62-.36-4.07a25,25,0,0,0,.18-6.8,3.4,3.4,0,0,0-3.76-3,4.22,4.22,0,0,0-4.16,3.36,11.1,11.1,0,0,0,.11,4.66C301.14,196.1,302.86,202.41,304.71,209.49Z"/><path d="M175.77,222.08c-.47.52-1.12,1.82-1.8,1.84a3.33,3.33,0,0,1-2.64-1.54,91.85,91.85,0,0,1-2.8-8.8c-7.93-27.41-23.31-50.27-43-70.47-.7-.71-1.41-1.42-2.06-2.18-1.16-1.34-3.11-2.7-1.09-4.58,1.87-1.75,3.2.06,4.35,1.31q6.28,6.76,12.46,13.65c17.69,19.77,29.11,42.85,36,68.3C175.38,220.25,175.5,220.9,175.77,222.08Z"/><path d="M230.11,124.81q.12-6.6,4.52-10C242,109.27,249.53,104,257,98.6c1.31-.94,2.74-1,3.64.55s-.12,2.6-1.39,3.49c-6.66,4.7-13.32,9.4-19.91,14.19a14.44,14.44,0,0,0-3.25,3.41c-1.21,1.74-1.86,3.67-.9,5.87.62,1.43.53,2.93-1.19,3.53s-2.65-.57-3.17-2A27.59,27.59,0,0,1,230.11,124.81Z"/><path d="M210.43,124.19a18.53,18.53,0,0,1-1.41,4.18c-.43.71-2,1.47-2.54,1.2-.78-.41-1.71-1.94-1.48-2.63,1.55-4.71-.81-7.73-4.2-10.23-6.14-4.54-12.41-8.91-18.63-13.35-.61-.43-1.52-.7-1.79-1.28-.44-.93-.94-2.34-.53-3a3.1,3.1,0,0,1,2.91-.66,25.89,25.89,0,0,1,5.12,3.06c5.58,4,11.18,8.07,16.63,12.29A14.25,14.25,0,0,1,210.43,124.19Z"/><path d="M221.08,132.28a46.6,46.6,0,0,1,5.42,1.78c1.79.84,3,2.54,2.37,4.48a41.46,41.46,0,0,1-3.88,9.59c-2,3.26-5.75,3.15-7.75-.16a44.57,44.57,0,0,1-3.77-9.12,3.6,3.6,0,0,1,1.92-4.45A48.66,48.66,0,0,1,221.08,132.28Zm-.37,13h.91a28.71,28.71,0,0,0,2-4.42c.27-.94,0-2.94-.31-3a11.87,11.87,0,0,0-4.52.16c-.24.05-.35,1.93-.07,2.83A37.73,37.73,0,0,0,220.71,145.26Z"/><path d="M256,282.62a13.67,13.67,0,0,0-1-2c-2.14-2.95-4.41-5.82-6.45-8.83-.47-.69-.25-1.85-.34-2.79.84.32,2,.38,2.48,1,2.38,3,4.62,6.06,6.8,9.19a4,4,0,0,1,.24,2.3c0,.21-.62.39-1,.59Z"/><path d="M316.26,178.31a61.42,61.42,0,0,1,3.68-5.64,2.46,2.46,0,0,1,2.41-.2,2.84,2.84,0,0,1,1,2.48,19.84,19.84,0,0,1-2.76,5,2.57,2.57,0,0,1-2.38.58C317.43,180.21,317,179.19,316.26,178.31Z"/><path d="M295.79,221.07c2,0,3.08,1.6,2.37,3.22a16.23,16.23,0,0,1-2.49,4.3,3.09,3.09,0,0,1-2.88.73,3.2,3.2,0,0,1-.85-2.88,14.68,14.68,0,0,1,2.22-4.16A5.3,5.3,0,0,1,295.79,221.07Z"/><path d="M215.66,336c-3.41-.86-6.49-1.57-9.52-2.48-.57-.17-.9-1.15-1.35-1.76.74-.3,1.54-1,2.21-.84,2.94.54,5.87,1.21,8.74,2,.66.19,1.08,1.18,1.61,1.8Z"/><path class="cls-1" d="M304.71,209.49c-1.85-7.08-3.57-13.39-5.11-19.73a11.1,11.1,0,0,1-.11-4.66,4.22,4.22,0,0,1,4.16-3.36,3.4,3.4,0,0,1,3.76,3,25,25,0,0,1-.18,6.8c-.2,1.45-1.25,2.92.36,4.07s2.79-.12,4-1l.2-.15c3.19-2.27,6.89-2.28,8.58,0s.81,6.59-2.18,8.38C313.8,205.43,309,207.38,304.71,209.49Z"/><path class="cls-1" d="M220.71,145.26a37.73,37.73,0,0,1-2-4.42c-.28-.9-.17-2.78.07-2.83a11.87,11.87,0,0,1,4.52-.16c.29.05.58,2.05.31,3a28.71,28.71,0,0,1-2,4.42Z"/></g></g></svg>