<svg xmlns="http://www.w3.org/2000/svg" viewBox="0 0 64 64" id="notification">
  <path d="M53.445,48.5A2.948,2.948,0,0,1,50.5,45.555V26.96A18.671,18.671,0,0,0,35.88,8.893V6.38a3.88,3.88,0,0,0-7.76,0V8.893A18.672,18.672,0,0,0,13.5,26.96v18.6A2.948,2.948,0,0,1,10.555,48.5,2.558,2.558,0,0,0,8,51.055v2.82a2.558,2.558,0,0,0,2.555,2.555H26.02a6.07,6.07,0,0,0,11.96,0H53.445A2.558,2.558,0,0,0,56,53.875v-2.82A2.558,2.558,0,0,0,53.445,48.5ZM30.12,6.38a1.88,1.88,0,0,1,3.76,0V8.556a20.269,20.269,0,0,0-3.76,0ZM32,59.5a4.076,4.076,0,0,1-3.945-3.07h7.89A4.076,4.076,0,0,1,32,59.5Zm22-5.625a.556.556,0,0,1-.555.555H10.555A.556.556,0,0,1,10,53.875v-2.82a.556.556,0,0,1,.555-.555A4.95,4.95,0,0,0,15.5,45.555V26.96c-.132-9.913,9.44-18.09,19.215-16.273A16.653,16.653,0,0,1,48.5,26.96v18.6A4.95,4.95,0,0,0,53.445,50.5a.556.556,0,0,1,.555.555Zm3.981-30.813A24.859,24.859,0,0,0,48.308,6.29a3.17,3.17,0,0,0-3.921,4.979,19.41,19.41,0,0,1,7.422,12.554A3.111,3.111,0,0,0,57.981,23.062Zm-2.247,1.055a1.12,1.12,0,0,1-1.946-.584A21.393,21.393,0,0,0,45.611,9.688c-1.144-.909.339-2.7,1.475-1.815A22.881,22.881,0,0,1,56,23.3,1.035,1.035,0,0,1,55.734,24.117ZM11.88,23.823A19.407,19.407,0,0,1,19.3,11.269,3.17,3.17,0,0,0,15.382,6.29,24.86,24.86,0,0,0,5.708,23.062a3.05,3.05,0,0,0,.751,2.382A3.131,3.131,0,0,0,11.88,23.823ZM7.694,23.3A22.874,22.874,0,0,1,16.6,7.873a1.171,1.171,0,0,1,1.474,1.815A21.391,21.391,0,0,0,9.9,23.533,1.111,1.111,0,0,1,7.694,23.3Z"></path>
</svg>
