<svg xmlns="http://www.w3.org/2000/svg" viewBox="0 0 262.8 234"><defs><style>.cls-1{fill:#fefefe;}.cls-2{fill:#010101;}.cls-3{fill:#020202;}.cls-4{fill:#030303;}.cls-5{fill:#fdfdfd;}.cls-6{fill:#f8f8f8;}.cls-7{fill:#cfcfcf;}</style></defs><g id="Layer_2" data-name="Layer 2"><g id="Layer_1-2" data-name="Layer 1"><path class="cls-1" d="M.05,159.57Q.05,80.84,0,2.1C0,.34.35,0,2.1,0Q131.4.09,260.7,0c1.76,0,2.1.34,2.1,2.1q-.09,114.9,0,229.8c0,1.76-.34,2.1-2.1,2.1q-129.3-.09-258.6,0C.35,234,0,233.66,0,231.9c.08-21,.05-42.06.05-63.09,1.37.07,1,1.34,1.42,2.07s1,1.48,1.94,1.34A1.71,1.71,0,0,0,4.9,170.4q-.14-5.07-.66-10.13c-.12-1.17-1.11-1.62-2.32-1.31C1.28,159.13.82,159.83.05,159.57Z"/><path class="cls-2" d="M.05,159.57c.85-1.17,1.88-2,3.42-1.48S5.16,160,5.2,161.41c.1,2.7.28,5.41.51,8.1.16,1.8-.11,3.38-2.19,3.6s-2.78-1.21-2.94-3c0-.46.13-1.05-.53-1.27Z"/><path d="M262.24,6a8.14,8.14,0,0,1-.88,3.82C244.55,54.87,227,99.67,209.67,144.56q-5.41,14.07-10.9,28.11c-1.27,3.28-2.23,3.66-5.39,2.12-8.58-4.18-17.16-8.35-25.7-12.6a4.35,4.35,0,0,0-4.45,0c-11.53,5.89-23.13,11.66-34.7,17.47-3.85,1.93-5.06,1.39-5.64-2.79q-2.73-19.65-5.3-39.34a5,5,0,0,0-2.52-4q-22.21-14.19-44.33-28.54c-3.81-2.46-3.75-4.26.2-6.27L257.55,3.78c.3-.16.61-.32.92-.46C261.15,2.12,262.26,2.86,262.24,6Z"/><path class="cls-2" d="M47.39,214.72c-1.42,0-2.46-.5-2.77-1.89a2.37,2.37,0,0,1,1.62-3,10.63,10.63,0,0,1,1.22-.36c4.21-1,4.25-1,3.94-5.36-.12-1.82.54-3.13,2.36-3.3s2.62,1,2.75,2.67c.12,1.44.3,2.71,1.79,3.64,1.25.77,1,6.92-.19,7.89s-2.83,1.1-3.56-.25c-.94-1.75-1.93-1.38-3.29-.93S48.62,214.44,47.39,214.72Z"/><path class="cls-3" d="M23,204.28a2.76,2.76,0,0,1-1.36,2.44,2.33,2.33,0,0,1-2.67-.13,35,35,0,0,1-7.66-8.54,2.23,2.23,0,0,1,.82-3.14,2.13,2.13,0,0,1,3,.17A98.75,98.75,0,0,0,22.45,203,3.62,3.62,0,0,1,23,204.28Z"/><path class="cls-3" d="M117.94,204c-.34.88-.73,2-1.19,3.08a43.31,43.31,0,0,1-3.76,7.21,2.29,2.29,0,0,1-3.31.86,2.33,2.33,0,0,1-1-3.46,87.21,87.21,0,0,0,4.34-8.91,2.32,2.32,0,0,1,2.92-1.45C117.14,201.6,117.75,202.48,117.94,204Z"/><path class="cls-3" d="M83.26,232.34c-1.67-.14-3.28-.26-4.89-.44s-2.66-1.15-2.46-2.91a2.34,2.34,0,0,1,2.91-2.17,39.66,39.66,0,0,0,9.43,0A2.26,2.26,0,0,1,91,228.86a2.38,2.38,0,0,1-2.15,2.93C87,232.1,85.08,232.17,83.26,232.34Z"/><path class="cls-2" d="M60.17,184.79a12.06,12.06,0,0,1-.5,1.44,36.65,36.65,0,0,0-2.65,8c-.37,1.8-1.43,2.77-3.28,2.32s-2.09-1.84-1.74-3.44a40.08,40.08,0,0,1,3.35-9.62,2.41,2.41,0,0,1,3-1.38C59.57,182.39,60.14,183.27,60.17,184.79Z"/><path class="cls-2" d="M11.36,188.43c0,1.78-.51,2.64-1.7,3a2.23,2.23,0,0,1-2.88-1,43,43,0,0,1-4.11-10.62,2.27,2.27,0,0,1,1.57-2.62,2.09,2.09,0,0,1,2.89.85C8.75,181.64,9.71,185.44,11.36,188.43Z"/><path class="cls-2" d="M97.3,228.84a2.49,2.49,0,0,1-2.43-1.54,2.05,2.05,0,0,1,.57-2.76,82.81,82.81,0,0,0,8.77-6.61c.92-.75,2-.3,2.79.43a2.36,2.36,0,0,1,.7,2.57C107.16,222.8,99.28,228.77,97.3,228.84Z"/><path class="cls-2" d="M72.07,226.68a2.46,2.46,0,0,1-3.49,2.42,26,26,0,0,1-9-6.56,2.35,2.35,0,0,1,0-3.46,2.26,2.26,0,0,1,3.42-.17,34.36,34.36,0,0,0,8,5.83A2.17,2.17,0,0,1,72.07,226.68Z"/><path class="cls-3" d="M79.24,179.05A25.92,25.92,0,0,1,77.17,188c-.62,1.62-1.78,2.38-3.4,1.8s-2-2-1.38-3.58a21.24,21.24,0,0,0,1.72-7.94c0-1.88.63-3.31,2.7-3.23s2.45,1.55,2.43,3.26C79.23,178.54,79.24,178.79,79.24,179.05Z"/><path class="cls-2" d="M70.19,193.05c2-.1,3.46,1.89,2.57,3.54a30.16,30.16,0,0,1-7.4,9.07,2.19,2.19,0,0,1-3-.32,2.22,2.22,0,0,1-.32-3.23A65.91,65.91,0,0,0,68.57,194,2.67,2.67,0,0,1,70.19,193.05Z"/><path class="cls-2" d="M37.78,215a34.35,34.35,0,0,1-10.88-3.26,2.51,2.51,0,0,1,2.2-4.51,41.74,41.74,0,0,0,9.3,2.73,2.31,2.31,0,0,1,2,2.84A2.49,2.49,0,0,1,37.78,215Z"/><path class="cls-2" d="M70.39,168.89c1.59,0,2.85.71,3,2.46A2.35,2.35,0,0,1,70.86,174c-2.61.18-4.31,1.86-5.88,3.7-1.18,1.38-2.58,2.21-4.15.84s-.92-2.87.28-4.23C63.58,171.47,66.38,169.21,70.39,168.89Z"/><path class="cls-4" d="M121.58,189.83c-.38,2-.62,3.77-1.06,5.48a2.55,2.55,0,0,1-5-1,48.82,48.82,0,0,1,1-5.23,2.31,2.31,0,0,1,2.93-1.78A2.6,2.6,0,0,1,121.58,189.83Z"/><path class="cls-3" d="M6.64,147.54c-.2,1-.48,2.7-.87,4.34a2.32,2.32,0,0,1-2.84,1.92,2.37,2.37,0,0,1-2.09-2.75,34.78,34.78,0,0,1,.93-5.25,2.42,2.42,0,0,1,3-2C6.35,144.16,7,145.32,6.64,147.54Z"/><path class="cls-1" d="M246.89,16q-15.75,13.92-31.51,27.82-47.67,41.89-95.32,83.8c-1.57,1.39-2.52,1.44-4.25.31C103.24,119.73,90.59,111.64,78,103.5c-.63-.41-1.24-.86-2.18-1.5,2.28-1.18,4.32-2.25,6.38-3.3L244.43,16.25c.61-.31,1.24-.57,1.85-.85S247,15.5,246.89,16Z"/><path class="cls-1" d="M250,24.86q-4.45,11.66-8.9,23.3Q218.28,107.57,195.56,167c-.87,2.26-1.56,2.42-3.68,1.4-14.51-7-29.07-13.92-42.41-23.08-1.51-1-1.66-1.51-.46-2.92Q198.83,84,248.55,25.48a5.38,5.38,0,0,0,.57-1.18Z"/><path class="cls-1" d="M132.48,123.49c.51,7,1,13.68,1.46,20.31.22,3.07.23,6.16.72,9.18a10.57,10.57,0,0,1-1.33,7.06c-2,3.66-3.74,7.42-5.91,11.77-.77-5.51-1.47-10.4-2.14-15.28-1-7.18-1.93-14.37-3-21.54-.22-1.54-.11-2.68,1.26-3.77C126.5,128.88,129.25,126.32,132.48,123.49Z"/><path class="cls-1" d="M138,149.54q-.71-9.64-1.42-19.3c-.05-.6,0-1.19-.07-1.79-.42-9.1-.42-9.1,7.5-14.82.39,3.75.78,7.33,1.14,10.92.37,3.74.74,7.48,1.06,11.22.07.81.4,1.69-.31,2.44A49.32,49.32,0,0,0,138,149.54Z"/><path class="cls-1" d="M160.15,158,134.41,171c-.79-.95-.08-1.5.18-2,3.06-6.26,6.22-12.47,9.23-18.75.74-1.55,1.33-1.7,2.74-.77C150.89,152.27,155.31,155,160.15,158Z"/><path class="cls-1" d="M149.62,133.84c-.78-7.92-1.49-15.19-2.24-22.46a1.88,1.88,0,0,1,.83-1.72l6.46-5.67c.81,5.17,1.3,10.06,2.42,14.81.95,4,.15,7-2.9,9.75A53.15,53.15,0,0,0,149.62,133.84Z"/><path class="cls-1" d="M170.79,108.92c-.51-4.92-.75-9.32-1.48-13.64a6,6,0,0,1,2.75-6.63,78.37,78.37,0,0,0,6.05-5.24c.6,4.93,1.14,9.46,1.7,14a1.77,1.77,0,0,1-.37,1.44Z"/><path class="cls-1" d="M165.69,94.33c.59,6,1.13,11.55,1.68,17.11a2.52,2.52,0,0,1-.49,2.14c-1.9,2.15-3.73,4.37-6,7-.82-5.21-1.28-10-2.4-14.62-.89-3.68,0-6.13,3.1-8.13A42.08,42.08,0,0,0,165.69,94.33Z"/><path class="cls-5" d="M183.18,94.39c-.67-4.73-1.26-9-1.87-13.25-.1-.64.4-.89.76-1.21L191,72.11c.49,3.89.94,7.4,1.34,10.92a1.73,1.73,0,0,1-.44,1.13C189.09,87.47,186.28,90.75,183.18,94.39Z"/><path class="cls-5" d="M195.74,79.64c-2.18-10.08-1.26-12.36,7.15-17.6.3,2.54.58,5,.89,7.4.1.8-.42,1.27-.85,1.78C200.62,74,198.29,76.66,195.74,79.64Z"/><path class="cls-5" d="M207.1,65.78a2.56,2.56,0,0,1-.21-.4c-1.54-4.82-.08-8.4,4.24-11.07a41.66,41.66,0,0,0,5-4.34c1.44,2.58,1.26,4.67-.92,6.86-2.75,2.76-5.13,5.9-7.68,8.86C207.49,65.79,207.27,65.75,207.1,65.78Z"/><path class="cls-6" d="M220.4,50.68c-.58-2.77-.3-4.59,1.85-6.15,2.47-1.78,4.62-4,6.95-6,.58-.49,1-1.43,2.45-1.05Z"/><path class="cls-7" d="M246.89,16l-.61-.62c.46-.45,1.14-1.09,1.59-.5S247.39,15.77,246.89,16Z"/><path class="cls-2" d="M215.72,101c-.13.35-.29.83-.49,1.3q-5.39,12.93-10.8,25.85a5.72,5.72,0,0,1-1,1.72,1.66,1.66,0,0,1-2.12.25,1.41,1.41,0,0,1-.67-2c.49-1.27,1-2.52,1.54-3.77q4.69-11.3,9.39-22.58a8.42,8.42,0,0,1,1-2,1.73,1.73,0,0,1,2.09-.52A1.55,1.55,0,0,1,215.72,101Z"/><path class="cls-3" d="M198.8,136.39c1.27.13,1.77,1,1.24,2.29q-2.78,6.85-5.7,13.64a1.89,1.89,0,0,1-2.56,1.06c-1.33-.48-1.11-1.56-.69-2.56,1.79-4.32,3.62-8.62,5.41-12.94A2.11,2.11,0,0,1,198.8,136.39Z"/></g></g></svg>