<svg xmlns="http://www.w3.org/2000/svg" viewBox="0 0 143.86 143.86"><defs><style>.cls-1{fill:#fff;}</style></defs><g id="Layer_2" data-name="Layer 2"><g id="Layer_1-2" data-name="Layer 1"><path class="cls-1" d="M143.86,143.86H0V0H143.86ZM94.93,35.33V26.09c0-2.36-.47-2.83-2.76-2.83q-18.65,0-37.3,0a25.2,25.2,0,0,0-4.6.38c-12.6,2.37-21,12.53-21,25.52q0,25.4,0,50.78c0,2.49.43,2.91,3,2.91H91.69c2.91,0,3.24-.32,3.24-3.2V39h4.93v69.17H44L44,106.09H40.38v2.77c0,2.63.4,3,3,3h57.22c2.65,0,3-.32,3-3V47.74h4.63V116.9H52.39l-.23-1.56H48.71V118c0,2.22.43,2.65,2.6,2.65h57.92c2.13,0,2.64-.5,2.64-2.63V46.73c0-2.11-.55-2.65-2.65-2.66h-5.68V38c0-2.17-.49-2.66-2.62-2.66Z"/><path d="M94.93,35.33h6c2.13,0,2.61.49,2.62,2.66v6.07h5.68c2.1,0,2.65.55,2.65,2.66V118c0,2.13-.51,2.63-2.64,2.63H51.31c-2.17,0-2.59-.43-2.6-2.65v-2.62h3.45l.23,1.56h55.78V47.74h-4.63v61.17c0,2.66-.33,3-3,3H43.34c-2.56,0-3-.4-3-3v-2.77H44l.09,2.12H99.86V39H94.93V99.67c0,2.88-.33,3.2-3.24,3.2H32.23c-2.53,0-2.95-.42-3-2.91q0-25.39,0-50.78c0-13,8.39-23.15,21-25.52a25.2,25.2,0,0,1,4.6-.38q18.65,0,37.3,0c2.29,0,2.75.47,2.76,2.83ZM33,46.56V99.18H91.26V27H52.59v1.67q0,7.5,0,15c0,2.45-.41,2.87-2.83,2.87Zm16-3.68V27.79c-6.39.85-13.9,8.33-15.17,15.09Z"/><path class="cls-1" d="M33,46.56H49.75c2.42,0,2.83-.42,2.83-2.87q0-7.5,0-15V27H91.26V99.18H33Zm21.71,23-2.61-2.76c-.58.67-1.08,1.3-1.62,1.87s-1.15,1.1-1.85,1.77C48,59.86,52.05,52.65,60.14,49.76A17.44,17.44,0,0,1,79.6,77.07c-5.27,6.67-13,8.12-22.59,4.21-.29.45-.6.91-.89,1.39s-.58,1-.88,1.53a4.85,4.85,0,0,0,.45.3c7.58,4,15.08,3.82,22.13-1S88,71.59,86.73,63.09A20.85,20.85,0,0,0,65.09,45.16C54.43,45.61,46,53.8,45,64.73c-.15,1.78,0,3.59,0,5.38l-.39.12-3.15-3.37-2.75,2.55C41,71.65,43.15,73.84,45.35,76a1.81,1.81,0,0,0,2.83,0C50.35,73.84,52.49,71.69,54.68,69.51Zm18.78,1.07c-1.81-1.07-3.43-2.1-5.11-3a2.09,2.09,0,0,1-1.29-2.18c.09-3.27,0-6.55,0-9.82,0-.49,0-1-.07-1.47H63.58c0,4.69,0,9.3,0,13.91a1.75,1.75,0,0,0,.72,1.26c2.37,1.49,4.79,2.89,7.29,4.38Z"/><path class="cls-1" d="M48.92,42.88H33.75C35,36.12,42.53,28.64,48.92,27.79Z"/><path d="M54.68,69.51c-2.19,2.18-4.33,4.33-6.5,6.46a1.81,1.81,0,0,1-2.83,0c-2.2-2.16-4.37-4.35-6.62-6.59l2.75-2.55,3.15,3.37.39-.12c0-1.79-.13-3.6,0-5.38,1-10.93,9.39-19.12,20.05-19.57A20.85,20.85,0,0,1,86.73,63.09c1.26,8.5-1.8,15.54-8.91,20.41s-14.55,5-22.13,1a4.85,4.85,0,0,1-.45-.3c.3-.51.58-1,.88-1.53s.6-.94.89-1.39c9.59,3.91,17.32,2.46,22.59-4.21A17.44,17.44,0,0,0,60.14,49.76C52.05,52.65,48,59.86,48.6,70.39c.7-.67,1.3-1.19,1.85-1.77s1-1.2,1.62-1.87Z"/><path d="M73.46,70.58l-1.84,3.08c-2.5-1.49-4.92-2.89-7.29-4.38A1.75,1.75,0,0,1,63.61,68c0-4.61,0-9.22,0-13.91H67c0,.49.07,1,.07,1.47,0,3.27.06,6.55,0,9.82a2.09,2.09,0,0,0,1.29,2.18C70,68.48,71.65,69.51,73.46,70.58Z"/></g></g></svg>