<svg xmlns="http://www.w3.org/2000/svg" viewBox="0 0 283.94 106.3"><defs><style>.cls-1{fill:#222;fill-opacity:0.4;}.cls-2{fill:#fff;}</style></defs><g id="Layer_2" data-name="Layer 2"><g id="Layer_1-2" data-name="Layer 1"><path class="cls-1" d="M152.49,83.39A6.5,6.5,0,0,1,151,88.14a11.72,11.72,0,0,1-4.67,3.36,16.35,16.35,0,0,1-6.39,1.23,16.75,16.75,0,0,1-6.25-1.13,11.89,11.89,0,0,1-4.56-3.1,6.55,6.55,0,0,1-1.73-4.44,4.89,4.89,0,0,1,1.52-3.63,5,5,0,0,1,3.6-1.5,5.05,5.05,0,0,1,3.67,1.5,4.91,4.91,0,0,1,1.54,3.63,4.39,4.39,0,0,1-.77,2.77,10.84,10.84,0,0,1-1.56,1.6,1.76,1.76,0,0,0-.07,2.9,3,3,0,0,0,1.73.79c.45,0,.87.1,1.27.15s.94.06,1.61.06A4.34,4.34,0,0,0,144.24,88,5.14,5.14,0,0,0,143,84.77a20.5,20.5,0,0,0-3.12-3.15c-1.27-1-2.62-2.11-4.07-3.23S133,76.14,131.72,75a17.47,17.47,0,0,1-3.12-3.8,8.21,8.21,0,0,1-1.23-4.37,5.84,5.84,0,0,1,1.79-4.4,11.37,11.37,0,0,1,4.39-2.56,16.82,16.82,0,0,1,5.09-.83,14.46,14.46,0,0,1,4,.48c1.09.3,2.07.59,2.94.85a7.65,7.65,0,0,0,2.7.33,3,3,0,0,0,1-.27,2.56,2.56,0,0,0,.71-.46h.33v10.8H150a28.85,28.85,0,0,0-1.33-4.46,13.07,13.07,0,0,0-2.77-4.4,8.24,8.24,0,0,0-5.11-2.35,3.89,3.89,0,0,0-3,.69,3.79,3.79,0,0,0-1.39,3.06,5.5,5.5,0,0,0,1.37,3.94,23.87,23.87,0,0,0,3.83,3.56q2.34,1.74,4.75,3.62a23.14,23.14,0,0,1,4.17,4.09A9,9,0,0,1,152.49,83.39Z"/><path class="cls-1" d="M169.56,90a3.38,3.38,0,0,0,2-.61v.46a22.79,22.79,0,0,1-3.27,1.88,11.08,11.08,0,0,1-4.85,1A7.48,7.48,0,0,1,156,85.27V60.06h-2.73v-.4a15.35,15.35,0,0,0,7-1.62,15.59,15.59,0,0,0,5.37-4.38h.4v6h4.33v.4H166V86.39A3.47,3.47,0,0,0,167,88.93,3.51,3.51,0,0,0,169.56,90Z"/><path class="cls-1" d="M201.16,87.39a3.23,3.23,0,0,0,.79,2.15,3.34,3.34,0,0,0,1.94,1.12v.4L192.5,92.73h-.21a1.07,1.07,0,0,1-.79-.34,1,1,0,0,1-.34-.79v-1A21.59,21.59,0,0,1,187,92.12a18.34,18.34,0,0,1-4.63.61,10.55,10.55,0,0,1-4.33-.9A7.07,7.07,0,0,1,174.81,89a10.44,10.44,0,0,1-1.19-5.38V65a3.12,3.12,0,0,0-.81-2.17,3.36,3.36,0,0,0-1.92-1.1v-.4l11.4-1.67h.21a1,1,0,0,1,1.12,1.13V82.66a4.06,4.06,0,0,1-.87,2.71c-.58.68-1.15,1.31-1.73,1.9a2.85,2.85,0,0,0-.86,2.12,1.93,1.93,0,0,0,1.29,1.71,7.44,7.44,0,0,0,3.23.63,12.47,12.47,0,0,0,4.38-.69c1.22-.47,1.92-.76,2.1-.86V65a3.12,3.12,0,0,0-.81-2.17,3.36,3.36,0,0,0-1.92-1.1v-.4l11.4-1.67H200a1,1,0,0,1,1.14,1.13Z"/><path class="cls-1" d="M234.68,87.39a3.23,3.23,0,0,0,.79,2.15,3.3,3.3,0,0,0,2,1.12v.4L226,92.73h-.19a1.06,1.06,0,0,1-.81-.36,1.25,1.25,0,0,1-.33-.85V89.93a14,14,0,0,1-4,2.23,9.94,9.94,0,0,1-4.5.5,10.68,10.68,0,0,1-6-2.56,15.48,15.48,0,0,1-4.13-5.75,19.12,19.12,0,0,1-1.5-7.62,20.17,20.17,0,0,1,1.23-7.19,18.58,18.58,0,0,1,3.29-5.65,15,15,0,0,1,4.61-3.62A11.31,11.31,0,0,1,218.82,59a12.34,12.34,0,0,1,3.3.43,12.69,12.69,0,0,1,2.56,1V51.06a3.23,3.23,0,0,0-.79-2.13A3.31,3.31,0,0,0,222,47.79v-.4l11.39-1.66h.21c.75,0,1.13.4,1.13,1.2Zm-12.19,2.54a5.17,5.17,0,0,0,2.19-.54V60.85a5.61,5.61,0,0,0-2.19-.52,5.37,5.37,0,0,0-4,2,14.88,14.88,0,0,0-2.9,5.33,26.24,26.24,0,0,0,0,14.9,14.83,14.83,0,0,0,2.9,5.37A5.34,5.34,0,0,0,222.49,89.93Z"/><path class="cls-1" d="M240.14,88.73V65a3.12,3.12,0,0,0-.81-2.17,3.36,3.36,0,0,0-1.92-1.1v-.4l11.4-1.67H249a1,1,0,0,1,1.12,1.13V88.73a3.2,3.2,0,0,0,.79,2.14A3.35,3.35,0,0,0,252.87,92v.39H237.41V92a3.25,3.25,0,0,0,1.92-1.13A3.18,3.18,0,0,0,240.14,88.73Zm10.21-37.8a4.94,4.94,0,0,1-1.54,3.61,5,5,0,0,1-3.67,1.52,4.92,4.92,0,0,1-3.62-1.52,5.15,5.15,0,0,1,0-7.27,4.86,4.86,0,0,1,3.62-1.54,5.26,5.26,0,0,1,5.21,5.2Z"/><path class="cls-1" d="M268.75,59a13.58,13.58,0,0,1,7.63,2.27,16.5,16.5,0,0,1,5.5,6.08,18.57,18.57,0,0,1,0,17,16.67,16.67,0,0,1-5.5,6.11,14,14,0,0,1-15.27,0,16.58,16.58,0,0,1-5.5-6.11,18.49,18.49,0,0,1,0-17,16.41,16.41,0,0,1,5.5-6.08A13.59,13.59,0,0,1,268.75,59Zm0,33.33q5.13,0,5.13-16.48t-5.13-16.46q-5.21,0-5.21,16.46T268.75,92.33Z"/><path class="cls-2" d="M146.6,77.5a6.56,6.56,0,0,1-1.52,4.75,11.61,11.61,0,0,1-4.67,3.35A16.21,16.21,0,0,1,134,86.83a16.72,16.72,0,0,1-6.25-1.12,11.76,11.76,0,0,1-4.57-3.11,6.55,6.55,0,0,1-1.73-4.43A4.92,4.92,0,0,1,123,74.54a5.17,5.17,0,0,1,7.28,0,4.91,4.91,0,0,1,1.54,3.63,4.41,4.41,0,0,1-.77,2.77,10.87,10.87,0,0,1-1.57,1.6,1.86,1.86,0,0,0-.79,1.5,1.91,1.91,0,0,0,.73,1.4,3,3,0,0,0,1.73.79c.44,0,.87.09,1.27.15s.94.06,1.61.06a4.17,4.17,0,0,0,3.06-1.27,4.21,4.21,0,0,0,1.27-3.07,5.11,5.11,0,0,0-1.25-3.22A20.16,20.16,0,0,0,134,75.73c-1.26-1-2.62-2.12-4.06-3.23s-2.81-2.26-4.08-3.44a17.53,17.53,0,0,1-3.13-3.79,8.33,8.33,0,0,1-1.23-4.37,5.85,5.85,0,0,1,1.8-4.4,11.17,11.17,0,0,1,4.39-2.56,16.83,16.83,0,0,1,5.08-.84,14.87,14.87,0,0,1,4,.48l2.93.86a8.23,8.23,0,0,0,2.71.33,3,3,0,0,0,1-.27,2.81,2.81,0,0,0,.71-.46h.33V64.83h-.33a28.13,28.13,0,0,0-1.34-4.45A12.82,12.82,0,0,0,140,56a8.19,8.19,0,0,0-5.1-2.35,3.9,3.9,0,0,0-3,.68,3.86,3.86,0,0,0-1.4,3.07,5.53,5.53,0,0,0,1.38,3.93,23,23,0,0,0,3.83,3.57c1.55,1.16,3.14,2.37,4.75,3.62a23.42,23.42,0,0,1,4.17,4.08A9.05,9.05,0,0,1,146.6,77.5Z"/><path class="cls-2" d="M163.67,84.1a3.37,3.37,0,0,0,2-.6V84a22.47,22.47,0,0,1-3.27,1.87,11,11,0,0,1-4.86,1,7.46,7.46,0,0,1-7.48-7.45V54.17h-2.72v-.4a15.28,15.28,0,0,0,6.95-1.62,15.74,15.74,0,0,0,5.38-4.38h.39v6h4.34v.4h-4.34V80.5a3.64,3.64,0,0,0,3.61,3.6Z"/><path class="cls-2" d="M195.27,81.5a3.23,3.23,0,0,0,.79,2.15A3.31,3.31,0,0,0,198,84.77v.4l-11.4,1.66h-.2a1.09,1.09,0,0,1-.8-.33,1.07,1.07,0,0,1-.33-.79v-1a22.38,22.38,0,0,1-4.19,1.52,18.2,18.2,0,0,1-4.62.6,10.63,10.63,0,0,1-4.34-.89,7.12,7.12,0,0,1-3.2-2.86,10.3,10.3,0,0,1-1.19-5.37V59.1a3.12,3.12,0,0,0-.81-2.16A3.35,3.35,0,0,0,165,55.83v-.39l11.4-1.67h.2a1,1,0,0,1,1.13,1.13V76.77a4,4,0,0,1-.88,2.71c-.57.68-1.14,1.31-1.73,1.9a2.88,2.88,0,0,0-.85,2.12,1.93,1.93,0,0,0,1.29,1.71,7.45,7.45,0,0,0,3.23.62,12.75,12.75,0,0,0,4.38-.68c1.21-.47,1.92-.76,2.1-.86V59.1a3.12,3.12,0,0,0-.81-2.16,3.32,3.32,0,0,0-1.92-1.11v-.39l11.4-1.67h.18a1,1,0,0,1,1.15,1.13Z"/><path class="cls-2" d="M228.79,81.5a3.23,3.23,0,0,0,.79,2.15,3.3,3.3,0,0,0,2,1.12v.4l-11.42,1.66h-.19a1.08,1.08,0,0,1-.81-.35,1.2,1.2,0,0,1-.33-.85V84a13.88,13.88,0,0,1-4,2.23,9.91,9.91,0,0,1-4.5.5,10.68,10.68,0,0,1-6-2.56,15.48,15.48,0,0,1-4.13-5.75,19.17,19.17,0,0,1-1.5-7.63,20.11,20.11,0,0,1,1.23-7.18A18.47,18.47,0,0,1,203.18,58a14.91,14.91,0,0,1,4.61-3.62,11.33,11.33,0,0,1,5.14-1.28,13.53,13.53,0,0,1,5.86,1.4V45.17A3.17,3.17,0,0,0,218,43a3.26,3.26,0,0,0-1.93-1.14v-.4l11.39-1.67h.21c.75,0,1.13.41,1.13,1.21ZM216.6,84a5.4,5.4,0,0,0,2.19-.54V55a5.51,5.51,0,0,0-2.19-.52,5.32,5.32,0,0,0-4,2,14.88,14.88,0,0,0-2.9,5.33,26.24,26.24,0,0,0,0,14.9,14.83,14.83,0,0,0,2.9,5.37A5.32,5.32,0,0,0,216.6,84Z"/><path class="cls-2" d="M234.25,82.83V59.1a3.12,3.12,0,0,0-.81-2.16,3.32,3.32,0,0,0-1.92-1.11v-.39l11.4-1.67h.21a1,1,0,0,1,1.12,1.13V82.83A3.23,3.23,0,0,0,245,85,3.31,3.31,0,0,0,247,86.1v.4H231.52v-.4a3.38,3.38,0,0,0,2.73-3.27ZM244.46,45a5,5,0,0,1-1.54,3.61,5,5,0,0,1-3.67,1.52,4.9,4.9,0,0,1-3.62-1.52,5.15,5.15,0,0,1,0-7.27,4.86,4.86,0,0,1,3.62-1.55A5.28,5.28,0,0,1,244.46,45Z"/><path class="cls-2" d="M262.86,53.1a13.48,13.48,0,0,1,7.62,2.28,16.33,16.33,0,0,1,5.5,6.08,18.49,18.49,0,0,1,0,17,16.39,16.39,0,0,1-5.5,6.1,14,14,0,0,1-15.27,0,16.56,16.56,0,0,1-5.5-6.1,18.57,18.57,0,0,1,0-17,16.5,16.5,0,0,1,5.5-6.08A13.56,13.56,0,0,1,262.86,53.1Zm0,33.34Q268,86.44,268,70T262.86,53.5q-5.21,0-5.21,16.46T262.86,86.44Z"/><path class="cls-1" d="M43.89,49.1a4.42,4.42,0,0,0,1.67,2.21,4.49,4.49,0,0,0,2.67.85v.4H27.68v-.4a3.27,3.27,0,0,0,2.73-1.39A3.23,3.23,0,0,0,31,47.68L29,42.1H16.23l-.46,1.19a7.62,7.62,0,0,0-.34,2.21,6.44,6.44,0,0,0,2,4.73,6.53,6.53,0,0,0,4.77,1.93v.4H5.89v-.4a10.18,10.18,0,0,0,5.44-2.6,12.63,12.63,0,0,0,3.56-5l14-38.67q2,5.75,3.46,10T35,23.48c.77,2.19,1.48,4.24,2.12,6.12s1.31,3.78,2,5.67,1.38,3.95,2.13,6.16S42.86,46.22,43.89,49.1ZM16.35,41.68H28.89l-1.43-4.16c-.42-1.22-.85-2.45-1.3-3.69l-1.48-4.21c-.53-1.55-1.16-3.42-1.91-5.6Z"/><path class="cls-1" d="M79.09,37.68V35.62h.4V52.56h-.4V45.1a5.32,5.32,0,0,1-.64,2.11,9.8,9.8,0,0,1-1.88,2.56,10,10,0,0,1-3,2.06,9.48,9.48,0,0,1-4.12.73,11.49,11.49,0,0,1-3.88-.83q-1.66-.7-3.33-1.44a12.85,12.85,0,0,0-4-.94,6.93,6.93,0,0,0-3.79.42,4.28,4.28,0,0,0-1.84,1.54,3,3,0,0,0-.5,1.25h-.41a11.52,11.52,0,0,1-.86-4.73A12.41,12.41,0,0,1,52.16,42a21.81,21.81,0,0,1,3.41-4.88c1.4-1.51,2.9-3,4.48-4.43a59.34,59.34,0,0,0,4.46-4.52A24.26,24.26,0,0,0,68,23.06a14.06,14.06,0,0,0,1.48-6.23A13.39,13.39,0,0,0,67.78,10a7,7,0,0,0-4.23-3.61,14.92,14.92,0,0,0-4,.75,1.31,1.31,0,0,0-.77,1.23q0,.9,1.23,1.56a7.56,7.56,0,0,1,3,2.61,6.7,6.7,0,0,1,1.17,3.85,6.88,6.88,0,0,1-2.11,5,7.05,7.05,0,0,1-10.06,0,6.84,6.84,0,0,1-2.1-5,7.32,7.32,0,0,1,1.45-4.52,12.61,12.61,0,0,1,3.82-3.27,19.77,19.77,0,0,1,5-2A20.37,20.37,0,0,1,65,5.89a19,19,0,0,1,8.15,1.73A15.18,15.18,0,0,1,79,12.29a10.8,10.8,0,0,1,2.17,6.54,9.9,9.9,0,0,1-1.55,5.6,14.24,14.24,0,0,1-4.06,4.05A41,41,0,0,1,70,31.54c-2,.9-4.06,1.78-6.13,2.62a57.63,57.63,0,0,0-5.73,2.73,16,16,0,0,0-4.35,3.46,10.4,10.4,0,0,1,3-1.85,11.55,11.55,0,0,1,4-.82,14.79,14.79,0,0,1,5.08.75C67.47,39,69,39.5,70.55,40a13.1,13.1,0,0,0,4.34.79,3.84,3.84,0,0,0,3.22-1.23A3.63,3.63,0,0,0,79.09,37.68Z"/><path class="cls-1" d="M108,45.16h-.75v3a4,4,0,0,0,4,4v.4H91.54v-.4a4,4,0,0,0,4-4v-7c-.85-.31-1.67-.59-2.48-.81A10.74,10.74,0,0,0,90.75,40a6.83,6.83,0,0,0-6.6,2.87l-.34-.21a19.9,19.9,0,0,1,2.11-5.08q1.5-2.64,3.18-5.38a48,48,0,0,0,3-5.52A17.55,17.55,0,0,0,93.71,21a10.23,10.23,0,0,0-1.11-5.75,8.81,8.81,0,0,1,1.28-4.69,9.71,9.71,0,0,1,3.39-3.38,9.33,9.33,0,0,1,9.4,0A9.49,9.49,0,0,1,110,10.54a9,9,0,0,1,1.23,4.69,9.15,9.15,0,0,1-1.71,5.37,21.08,21.08,0,0,1-4.46,4.58,65.07,65.07,0,0,1-5.91,4.15q-3.18,2-6.25,3.94a38.05,38.05,0,0,0-5.34,4.06,11.77,11.77,0,0,0-3.12,4.5,6.39,6.39,0,0,1,5.06-2.29,19.23,19.23,0,0,1,6,1.23,4,4,0,0,0-4-4v-.42l15.73-6.58v15a6,6,0,0,0,4-.88v.46A6.35,6.35,0,0,1,108,45.16Z"/><path class="cls-2" d="M38,43.21a4.6,4.6,0,0,0,4.33,3.06v.4H21.79v-.4a3.29,3.29,0,0,0,2.73-1.39,3.21,3.21,0,0,0,.54-3.09l-1.93-5.58H10.33L9.88,37.4a7.61,7.61,0,0,0-.34,2.2,6.37,6.37,0,0,0,2,4.73,6.49,6.49,0,0,0,4.77,1.94v.4H0v-.4a10.18,10.18,0,0,0,5.44-2.6,12.73,12.73,0,0,0,3.56-5L23,0q2,5.73,3.46,10t2.64,7.58q1.17,3.3,2.13,6.13t2,5.67c.67,1.89,1.37,3.94,2.12,6.16S37,40.32,38,43.21ZM10.46,35.79H23c-.53-1.55-1-2.94-1.44-4.16s-.85-2.45-1.29-3.69-.94-2.65-1.48-4.21-1.16-3.42-1.91-5.6Z"/><path class="cls-2" d="M73.2,31.79V29.73h.4V46.67h-.4V39.21a5.24,5.24,0,0,1-.64,2.1,9.9,9.9,0,0,1-1.88,2.57,10,10,0,0,1-3,2.06,9.49,9.49,0,0,1-4.13.73,11.48,11.48,0,0,1-3.87-.84c-1.12-.47-2.22-.94-3.33-1.43a12.85,12.85,0,0,0-4-.94,7,7,0,0,0-3.8.42,4.06,4.06,0,0,0-1.83,1.54,3,3,0,0,0-.5,1.25h-.42a11.7,11.7,0,0,1-.85-4.73,12.41,12.41,0,0,1,1.33-5.79,22.19,22.19,0,0,1,3.42-4.88c1.4-1.51,2.9-3,4.48-4.44a57.59,57.59,0,0,0,4.46-4.52,24,24,0,0,0,3.5-5.14,14.13,14.13,0,0,0,1.48-6.23,13.53,13.53,0,0,0-1.71-6.88A7,7,0,0,0,57.66.46a14.85,14.85,0,0,0-4,.75,1.28,1.28,0,0,0-.77,1.23q0,.9,1.23,1.56a7.45,7.45,0,0,1,3,2.6,6.82,6.82,0,0,1,1.16,3.86,6.87,6.87,0,0,1-2.1,5,7.07,7.07,0,0,1-10.06,0,6.84,6.84,0,0,1-2.11-5,7.32,7.32,0,0,1,1.46-4.52,12.69,12.69,0,0,1,3.81-3.27,19.61,19.61,0,0,1,5-2A19.89,19.89,0,0,1,59.12,0a18.88,18.88,0,0,1,8.14,1.73A15.14,15.14,0,0,1,73.1,6.4a10.77,10.77,0,0,1,2.16,6.54,9.89,9.89,0,0,1-1.54,5.6,14.08,14.08,0,0,1-4.06,4,40,40,0,0,1-5.58,3.07c-2,.9-4.06,1.78-6.13,2.62A56.58,56.58,0,0,0,52.22,31a15.82,15.82,0,0,0-4.35,3.46,10.42,10.42,0,0,1,3-1.86,11.74,11.74,0,0,1,4-.81,14.83,14.83,0,0,1,5.08.75c1.63.53,3.19,1.06,4.71,1.61a13.09,13.09,0,0,0,4.33.79,3.86,3.86,0,0,0,3.23-1.23A3.71,3.71,0,0,0,73.2,31.79Z"/><path class="cls-2" d="M102.13,39.27h-.75v3a4,4,0,0,0,4,4v.4H85.65v-.4a4,4,0,0,0,4-4v-7c-.85-.32-1.68-.59-2.48-.81a10.77,10.77,0,0,0-2.31-.4,6.88,6.88,0,0,0-6.61,2.88l-.33-.21A19.71,19.71,0,0,1,80,31.65c1-1.76,2.07-3.56,3.19-5.38a49.67,49.67,0,0,0,3-5.52,17.53,17.53,0,0,0,1.61-5.67,10.43,10.43,0,0,0-1.11-5.75A8.79,8.79,0,0,1,88,4.65a9.74,9.74,0,0,1,3.4-3.38,9.31,9.31,0,0,1,9.39,0,9.36,9.36,0,0,1,3.38,3.38,9,9,0,0,1,1.23,4.68,9.18,9.18,0,0,1-1.71,5.38,21.31,21.31,0,0,1-4.46,4.58,66.5,66.5,0,0,1-5.91,4.15c-2.12,1.3-4.2,2.62-6.25,3.94a36.92,36.92,0,0,0-5.34,4.06,11.62,11.62,0,0,0-3.12,4.5,6.35,6.35,0,0,1,5.06-2.29,18.68,18.68,0,0,1,6,1.23,4,4,0,0,0-4-4v-.42l15.73-6.58v15a6.05,6.05,0,0,0,4-.88v.46A6.37,6.37,0,0,1,102.13,39.27Z"/><path class="cls-1" d="M148.17,13h1.09L109.8,106.3h-1.21Z"/><path class="cls-2" d="M136.39,1.2h1.08L98,94.52H96.81Z"/></g></g></svg>